<?xml version="1.0" encoding="UTF-8"?>
<svg xmlns="http://www.w3.org/2000/svg" width="712" height="712" viewBox="0 0 712 712"><g id="Gruppe_366" data-name="Gruppe 366" transform="translate(-0.1 -0.436)"><circle id="Ellipse_44" data-name="Ellipse 44" cx="356" cy="356" r="356" transform="translate(0.1 0.436)" fill="#242852"/><g id="GLS_General_Logistics_Systems_1_Konvertiert_" data-name="GLS_General_Logistics_Systems (1) [Konvertiert]" transform="translate(67.055 280.217)"><path id="Pfad_487" data-name="Pfad 487" d="M117.091,100.953,135.822,4.9H103.2L78.51,132.881l59.494.053,5.907-31.982Z" transform="translate(339.379 21.069)" fill="#fff" fill-rule="evenodd"/><path id="Pfad_488" data-name="Pfad 488" d="M357.527,295.674a62.125,62.125,0,0,1,17.721,2.927l5.321-29.481a142.391,142.391,0,0,0-22.19-1.81c-35.388,0-51.99,21.286-51.99,44.7,0,30.918,31.45,30.6,31.45,43.742,0,6.6-4.629,10.271-14.634,10.271a73.1,73.1,0,0,1-22.35-3.832L295,393.8a140.649,140.649,0,0,0,25.17,2.288c31.663,0,53.8-21.286,53.8-46.563,0-30.013-31.609-30.545-31.609-43.742,0-5.854,3.937-10.111,15.166-10.111" transform="translate(194.676 -241.395)" fill="#fff" fill-rule="evenodd"/><path id="Pfad_489" data-name="Pfad 489" d="M341.522,267.33c-48.585,0-79.822,36.4-79.822,81.046,0,27.938,14.741,47.255,51.831,47.255A111.27,111.27,0,0,0,356.1,387.6l11.974-61.835H335.4l-6.971,37.676a37.661,37.661,0,0,1-8.993.9c-16.284,0-22.19-8.993-22.19-20.913,0-22.244,13.623-45.233,41.4-45.233a82.538,82.538,0,0,1,24,3.832l2.395.745a46.9,46.9,0,0,1,6.812,2.874l6.652-33.419a147.33,147.33,0,0,0-36.985-4.9" transform="translate(50.771 -241.308)" fill="#fff" fill-rule="evenodd"/><path id="Pfad_490" data-name="Pfad 490" d="M351.072,288.834l-8.727,42.572H402.69c-50.022,74.128-149.321,61.516-175.609,30.811-22.616-26.608-3.087-71.787,63.858-99.778-66.306,20.168-103.556,73.17-81.684,108.877,24.8,40.443,102.119,57.312,170.819,37.676,45.925-15.964,65.507-38.74,72.691-50.926L441.537,416.6h45.126l24.479-127.715Z" transform="translate(-202.981 -262.44)" fill="#fcbf00" fill-rule="evenodd"/></g></g></svg>